<svg xmlns="http://www.w3.org/2000/svg" xmlns:xlink="http://www.w3.org/1999/xlink" width="2000" zoomAndPan="magnify" viewBox="0 0 1500 1499.999933" height="2000" preserveAspectRatio="xMidYMid meet" version="1.0"><defs><g/><clipPath id="e6ed8d5531"><path d="M 711 0.238281 L 1396.558594 0.238281 L 1396.558594 481 L 711 481 Z M 711 0.238281 " clip-rule="nonzero"/></clipPath><clipPath id="88f3fe38c5"><rect x="0" width="686" y="0" height="481"/></clipPath><clipPath id="398004081d"><path d="M 0.480469 132 L 739 132 L 739 505.917969 L 0.480469 505.917969 Z M 0.480469 132 " clip-rule="nonzero"/></clipPath><clipPath id="fd0ad31a5d"><rect x="0" width="739" y="0" height="374"/></clipPath><clipPath id="1adcd19911"><rect x="0" width="1397" y="0" height="506"/></clipPath></defs><g transform="matrix(1, 0, 0, 1, 60, 456)"><g clip-path="url(#1adcd19911)"><g clip-path="url(#e6ed8d5531)"><g transform="matrix(1, 0, 0, 1, 711, 0.000000000000113687)"><g clip-path="url(#88f3fe38c5)"><g fill="#ffffff" fill-opacity="1"><g transform="translate(3.628989, 389.91411)"><g><path d="M 82.65625 2.953125 C 68.007812 2.953125 55.328125 0.214844 44.609375 -5.25 C 33.890625 -10.71875 25.742188 -17.878906 20.171875 -26.734375 C 14.597656 -35.585938 11.8125 -44.9375 11.8125 -54.78125 L 11.8125 -57.078125 L 61.34375 -57.078125 L 61.34375 -55.109375 C 61.34375 -50.078125 63.304688 -45.644531 67.234375 -41.8125 C 71.171875 -37.988281 76.75 -36.078125 83.96875 -36.078125 C 90.09375 -36.078125 95.007812 -37.550781 98.71875 -40.5 C 102.4375 -43.457031 104.296875 -47.34375 104.296875 -52.15625 C 104.296875 -56.53125 102.546875 -60.023438 99.046875 -62.640625 C 95.554688 -65.265625 91.1875 -67.015625 85.9375 -67.890625 L 67.234375 -71.828125 C 54.554688 -74.015625 42.859375 -79.097656 32.140625 -87.078125 C 21.429688 -95.066406 16.078125 -107.367188 16.078125 -123.984375 C 16.078125 -140.816406 22.144531 -153.878906 34.28125 -163.171875 C 46.414062 -172.472656 61.992188 -177.125 81.015625 -177.125 C 95.234375 -177.125 107.476562 -174.609375 117.75 -169.578125 C 128.03125 -164.546875 135.789062 -157.929688 141.03125 -149.734375 C 146.28125 -141.535156 148.90625 -132.84375 148.90625 -123.65625 L 148.90625 -122.015625 L 99.390625 -122.015625 L 99.390625 -123 C 99.390625 -127.375 97.75 -131.421875 94.46875 -135.140625 C 91.1875 -138.859375 86.15625 -140.71875 79.375 -140.71875 C 73.6875 -140.71875 69.148438 -139.347656 65.765625 -136.609375 C 62.378906 -133.878906 60.6875 -130.109375 60.6875 -125.296875 C 60.6875 -116.765625 67.789062 -111.1875 82 -108.5625 L 102.34375 -103.96875 C 116.113281 -100.914062 127.753906 -95.34375 137.265625 -87.25 C 146.773438 -79.15625 151.53125 -67.675781 151.53125 -52.8125 C 151.53125 -41.4375 148.523438 -31.539062 142.515625 -23.125 C 136.503906 -14.707031 128.25 -8.253906 117.75 -3.765625 C 107.257812 0.710938 95.5625 2.953125 82.65625 2.953125 Z M 82.65625 2.953125 "/></g></g></g><g fill="#ffffff" fill-opacity="1"><g transform="translate(139.090912, 389.91411)"><g><path d="M 87.578125 -133.828125 L 87.578125 -64.28125 C 87.578125 -56.632812 87.957031 -51.003906 88.71875 -47.390625 C 89.488281 -43.785156 91.675781 -40.890625 95.28125 -38.703125 C 98.894531 -36.515625 104.742188 -35.421875 112.828125 -35.421875 C 116.984375 -35.421875 121.25 -35.859375 125.625 -36.734375 L 125.625 -1.3125 C 123.4375 -0.875 119.0625 -0.382812 112.5 0.15625 C 105.9375 0.707031 99.378906 0.984375 92.828125 0.984375 C 75.765625 0.984375 63.132812 -1.53125 54.9375 -6.5625 C 46.738281 -11.59375 41.65625 -17.710938 39.6875 -24.921875 C 37.71875 -32.140625 36.734375 -41.546875 36.734375 -53.140625 L 36.734375 -133.828125 L 8.859375 -133.828125 L 8.859375 -173.515625 L 36.734375 -173.515625 L 36.734375 -229.59375 L 87.578125 -229.59375 L 87.578125 -173.515625 L 125.625 -173.515625 L 125.625 -133.828125 Z M 87.578125 -133.828125 "/></g></g></g><g fill="#ffffff" fill-opacity="1"><g transform="translate(253.889153, 389.91411)"><g><path d="M 95.78125 2.953125 C 77.40625 2.953125 61.929688 -1.085938 49.359375 -9.171875 C 36.785156 -17.265625 27.4375 -28.085938 21.3125 -41.640625 C 15.195312 -55.203125 12.140625 -70.296875 12.140625 -86.921875 C 12.140625 -103.316406 15.195312 -118.347656 21.3125 -132.015625 C 27.4375 -145.679688 36.785156 -156.613281 49.359375 -164.8125 C 61.929688 -173.019531 77.40625 -177.125 95.78125 -177.125 C 114.144531 -177.125 129.613281 -173.078125 142.1875 -164.984375 C 154.757812 -156.890625 164.109375 -146.007812 170.234375 -132.34375 C 176.359375 -118.675781 179.421875 -103.644531 179.421875 -87.25 C 179.421875 -70.84375 176.359375 -55.804688 170.234375 -42.140625 C 164.109375 -28.472656 154.757812 -17.539062 142.1875 -9.34375 C 129.613281 -1.144531 114.144531 2.953125 95.78125 2.953125 Z M 95.78125 -38.046875 C 107.144531 -38.046875 115.5625 -42.742188 121.03125 -52.140625 C 126.5 -61.546875 129.234375 -73.359375 129.234375 -87.578125 C 129.234375 -101.785156 126.5 -113.425781 121.03125 -122.5 C 115.5625 -131.582031 107.144531 -136.125 95.78125 -136.125 C 84.40625 -136.125 75.984375 -131.53125 70.515625 -122.34375 C 65.046875 -113.15625 62.3125 -101.566406 62.3125 -87.578125 C 62.3125 -73.359375 65.097656 -61.546875 70.671875 -52.140625 C 76.253906 -42.742188 84.625 -38.046875 95.78125 -38.046875 Z M 95.78125 -38.046875 "/></g></g></g><g fill="#ffffff" fill-opacity="1"><g transform="translate(419.198648, 389.91411)"><g><path d="M 121.6875 2.953125 C 107.257812 2.953125 96.109375 -0.328125 88.234375 -6.890625 C 80.359375 -13.453125 74.5625 -20.445312 70.84375 -27.875 L 68.21875 -27.875 L 68.21875 68.546875 L 16.734375 68.546875 L 16.734375 -173.515625 L 68.21875 -173.515625 L 68.21875 -147.921875 L 70.84375 -147.921875 C 73.90625 -154.484375 79.425781 -160.988281 87.40625 -167.4375 C 95.394531 -173.894531 106.710938 -177.125 121.359375 -177.125 C 143.003906 -177.125 159.675781 -169.03125 171.375 -152.84375 C 183.070312 -136.664062 188.921875 -114.691406 188.921875 -86.921875 C 188.921875 -59.585938 183.070312 -37.773438 171.375 -21.484375 C 159.675781 -5.191406 143.113281 2.953125 121.6875 2.953125 Z M 102.65625 -37.390625 C 114.46875 -37.390625 123.160156 -42.304688 128.734375 -52.140625 C 134.316406 -61.984375 137.109375 -73.578125 137.109375 -86.921875 C 137.109375 -100.253906 134.316406 -111.675781 128.734375 -121.1875 C 123.160156 -130.707031 114.46875 -135.46875 102.65625 -135.46875 C 90.851562 -135.46875 82.160156 -130.65625 76.578125 -121.03125 C 71.003906 -111.40625 68.21875 -100.035156 68.21875 -86.921875 C 68.21875 -73.578125 71.0625 -61.984375 76.75 -52.140625 C 82.4375 -42.304688 91.070312 -37.390625 102.65625 -37.390625 Z M 102.65625 -37.390625 "/></g></g></g><g fill="#ffffff" fill-opacity="1"><g transform="translate(596.315991, 389.91411)"><g><path d="M 55.109375 2.953125 C 47.015625 2.953125 40.34375 0.214844 35.09375 -5.25 C 29.84375 -10.71875 27.21875 -17.382812 27.21875 -25.25 C 27.21875 -33.125 29.84375 -39.738281 35.09375 -45.09375 C 40.34375 -50.457031 47.015625 -53.140625 55.109375 -53.140625 C 63.191406 -53.140625 69.910156 -50.457031 75.265625 -45.09375 C 80.628906 -39.738281 83.3125 -33.125 83.3125 -25.25 C 83.3125 -17.382812 80.578125 -10.71875 75.109375 -5.25 C 69.640625 0.214844 62.972656 2.953125 55.109375 2.953125 Z M 55.109375 2.953125 "/></g></g></g></g></g></g><g clip-path="url(#398004081d)"><g transform="matrix(1, 0, 0, 1, -0.000000000000007105, 132)"><g clip-path="url(#fd0ad31a5d)"><g fill="#ffffff" fill-opacity="1"><g transform="translate(4.696064, 267.25627)"><g><path d="M 107.796875 -169.875 C 119.691406 -169.875 130.71875 -166.28125 140.875 -159.09375 L 189.9375 -159.09375 L 184 -138.640625 L 154.25 -138.640625 C 156.488281 -132.691406 157.609375 -126.742188 157.609375 -120.796875 C 157.609375 -110.140625 154.445312 -99.914062 148.125 -90.125 C 141.800781 -80.34375 133 -72.351562 121.71875 -66.15625 C 110.445312 -59.96875 97.753906 -56.625 83.640625 -56.125 C 76.941406 -53.894531 70.804688 -50.984375 65.234375 -47.390625 C 59.660156 -43.796875 56.875 -40.265625 56.875 -36.796875 C 56.875 -33.328125 59.101562 -30.660156 63.5625 -28.796875 C 68.019531 -26.941406 76.941406 -24.28125 90.328125 -20.8125 C 92.054688 -20.5625 94.65625 -19.941406 98.125 -18.953125 C 131.332031 -10.773438 147.9375 2.851562 147.9375 21.9375 C 147.9375 32.09375 144.40625 41.257812 137.34375 49.4375 C 130.28125 57.613281 120.550781 64.117188 108.15625 68.953125 C 95.769531 73.785156 81.894531 76.203125 66.53125 76.203125 C 46.957031 76.203125 30.414062 72.671875 16.90625 65.609375 C 3.40625 58.546875 -3.34375 49.066406 -3.34375 37.171875 C -3.34375 33.703125 -2.597656 30.234375 -1.109375 26.765625 C 0.367188 23.296875 4.328125 18.523438 10.765625 12.453125 C 17.210938 6.378906 27.128906 -0.867188 40.515625 -9.296875 C 34.566406 -13.253906 31.59375 -18.207031 31.59375 -24.15625 C 31.59375 -30.851562 34.441406 -36.554688 40.140625 -41.265625 C 45.835938 -45.972656 55.007812 -51.796875 67.65625 -58.734375 C 55.757812 -62.441406 46.398438 -68.015625 39.578125 -75.453125 C 32.765625 -82.890625 29.359375 -92.179688 29.359375 -103.328125 C 29.359375 -115.722656 33.195312 -127 40.875 -137.15625 C 48.5625 -147.3125 58.476562 -155.300781 70.625 -161.125 C 82.769531 -166.957031 95.160156 -169.875 107.796875 -169.875 Z M 60.59375 -93.671875 C 60.59375 -87.472656 62.632812 -81.148438 66.71875 -74.703125 C 70.8125 -68.265625 76.945312 -65.046875 85.125 -65.046875 C 93.550781 -65.046875 100.921875 -68.882812 107.234375 -76.5625 C 113.554688 -84.25 118.390625 -93.601562 121.734375 -104.625 C 125.078125 -115.65625 126.75 -125.878906 126.75 -135.296875 C 126.75 -142.734375 124.953125 -148.804688 121.359375 -153.515625 C 117.765625 -158.222656 112.375 -160.578125 105.1875 -160.578125 C 95.03125 -160.578125 86.601562 -156.488281 79.90625 -148.3125 C 73.21875 -140.132812 68.328125 -130.71875 65.234375 -120.0625 C 62.140625 -109.40625 60.59375 -100.609375 60.59375 -93.671875 Z M 18.578125 34.5625 C 18.578125 44.476562 23.65625 52.410156 33.8125 58.359375 C 43.976562 64.304688 55.753906 67.28125 69.140625 67.28125 C 77.066406 67.28125 85.363281 66.101562 94.03125 63.75 C 102.707031 61.394531 110.144531 57.675781 116.34375 52.59375 C 122.539062 47.507812 125.640625 41.128906 125.640625 33.453125 C 125.640625 27.503906 123.222656 22.484375 118.390625 18.390625 C 113.554688 14.304688 107.789062 11.085938 101.09375 8.734375 C 94.40625 6.378906 85.238281 3.71875 73.59375 0.75 C 61.207031 -2.226562 52.535156 -4.707031 47.578125 -6.6875 C 38.660156 -0.25 31.597656 6.066406 26.390625 12.265625 C 21.179688 18.460938 18.578125 25.894531 18.578125 34.5625 Z M 18.578125 34.5625 "/></g></g></g><g fill="#ffffff" fill-opacity="1"><g transform="translate(151.136602, 267.25627)"><g><path d="M 115.59375 -169.875 C 122.289062 -169.875 128.363281 -167.578125 133.8125 -162.984375 C 139.257812 -158.398438 142.601562 -152.019531 143.84375 -143.84375 L 144.59375 -143.84375 L 150.546875 -165.78125 L 179.90625 -169.875 L 141.625 -35.6875 C 141.375 -35.1875 140.753906 -33.328125 139.765625 -30.109375 C 138.773438 -26.890625 138.28125 -23.664062 138.28125 -20.4375 C 138.28125 -18.457031 138.773438 -16.910156 139.765625 -15.796875 C 140.753906 -14.679688 141.867188 -14.125 143.109375 -14.125 C 146.328125 -14.125 150.414062 -16.351562 155.375 -20.8125 C 160.332031 -25.269531 165.039062 -31.46875 169.5 -39.40625 L 175.078125 -35.6875 C 168.378906 -23.289062 159.890625 -13.5 149.609375 -6.3125 C 139.328125 0.863281 130.222656 4.453125 122.296875 4.453125 C 117.828125 4.453125 114.476562 2.84375 112.25 -0.375 C 110.019531 -3.59375 108.90625 -7.554688 108.90625 -12.265625 C 108.90625 -15.484375 109.585938 -20.75 110.953125 -28.0625 C 112.316406 -35.375 114.484375 -42.75 117.453125 -50.1875 L 116.71875 -50.921875 C 88.957031 -14.003906 63.804688 4.453125 41.265625 4.453125 C 31.347656 4.453125 23.476562 0.179688 17.65625 -8.359375 C 11.832031 -16.910156 8.921875 -26.757812 8.921875 -37.90625 C 8.921875 -57.238281 14.554688 -77.25 25.828125 -97.9375 C 37.109375 -118.632812 51.109375 -135.796875 67.828125 -149.421875 C 84.554688 -163.054688 100.476562 -169.875 115.59375 -169.875 Z M 38.65625 -44.96875 C 38.65625 -35.3125 40.882812 -28.25 45.34375 -23.78125 C 49.800781 -19.320312 55.003906 -17.09375 60.953125 -17.09375 C 68.640625 -17.09375 76.941406 -20.5625 85.859375 -27.5 C 94.785156 -34.4375 103.023438 -43.296875 110.578125 -54.078125 C 118.140625 -64.859375 123.78125 -75.828125 127.5 -86.984375 C 131.207031 -97.878906 133.929688 -106.859375 135.671875 -113.921875 C 137.410156 -120.984375 138.28125 -127.863281 138.28125 -134.5625 C 138.28125 -144.21875 136.046875 -151.335938 131.578125 -155.921875 C 127.117188 -160.515625 121.914062 -162.8125 115.96875 -162.8125 C 104.320312 -162.8125 92.488281 -155.6875 80.46875 -141.4375 C 68.457031 -127.1875 58.484375 -110.519531 50.546875 -91.4375 C 42.617188 -72.351562 38.65625 -56.863281 38.65625 -44.96875 Z M 38.65625 -44.96875 "/></g></g></g><g fill="#ffffff" fill-opacity="1"><g transform="translate(310.958382, 267.25627)"><g><path d="M 56.5 -83.265625 C 70.125 -106.054688 85.300781 -126.1875 102.03125 -143.65625 C 118.757812 -161.132812 134.0625 -169.875 147.9375 -169.875 C 155.375 -169.875 160.765625 -167.457031 164.109375 -162.625 C 167.453125 -157.789062 169.125 -152.148438 169.125 -145.703125 C 169.125 -136.046875 166.644531 -122.539062 161.6875 -105.1875 L 152.03125 -72.484375 L 152.765625 -71.734375 C 168.628906 -100.234375 185.234375 -123.710938 202.578125 -142.171875 C 219.921875 -160.640625 236.148438 -169.875 251.265625 -169.875 C 255.972656 -169.875 260.492188 -167.953125 264.828125 -164.109375 C 269.171875 -160.265625 271.34375 -153.882812 271.34375 -144.96875 C 271.34375 -142.238281 270.96875 -138.765625 270.21875 -134.546875 C 269.476562 -130.335938 268.738281 -126.625 268 -123.40625 L 244.203125 -40.140625 C 243.710938 -38.648438 242.847656 -35.675781 241.609375 -31.21875 C 240.367188 -26.757812 239.75 -23.414062 239.75 -21.1875 C 239.75 -16.726562 241.113281 -14.5 243.84375 -14.5 C 247.0625 -14.5 251.457031 -17.472656 257.03125 -23.421875 C 262.601562 -29.367188 267.25 -34.941406 270.96875 -40.140625 L 275.796875 -35.6875 C 268.859375 -25.03125 260.367188 -15.675781 250.328125 -7.625 C 240.296875 0.425781 231.566406 4.453125 224.140625 4.453125 C 221.410156 4.453125 218.554688 3.273438 215.578125 0.921875 C 212.609375 -1.429688 211.125 -5.457031 211.125 -11.15625 C 211.125 -18.34375 213.351562 -29.863281 217.8125 -45.71875 L 237.515625 -114.859375 C 240.492188 -124.765625 241.984375 -132.570312 241.984375 -138.28125 C 241.984375 -141.25 241.175781 -143.785156 239.5625 -145.890625 C 237.945312 -147.992188 235.898438 -149.046875 233.421875 -149.046875 C 225.492188 -149.046875 217.007812 -144.707031 207.96875 -136.03125 C 198.925781 -127.363281 189.203125 -115.597656 178.796875 -100.734375 C 169.378906 -87.347656 161.320312 -74.457031 154.625 -62.0625 C 147.9375 -49.675781 143.601562 -40.015625 141.625 -33.078125 C 135.425781 -13.003906 132.078125 -1.976562 131.578125 0 L 103.703125 0 L 133.8125 -106.3125 C 135.050781 -110.269531 136.472656 -115.53125 138.078125 -122.09375 C 139.691406 -128.664062 140.5 -134.0625 140.5 -138.28125 C 140.5 -141.5 139.566406 -144.035156 137.703125 -145.890625 C 135.847656 -147.753906 133.6875 -148.6875 131.21875 -148.6875 C 123.78125 -148.6875 114.859375 -144.097656 104.453125 -134.921875 C 94.046875 -125.753906 83.632812 -113.367188 73.21875 -97.765625 C 65.289062 -86.109375 58.972656 -75.632812 54.265625 -66.34375 C 49.554688 -57.050781 44.847656 -44.722656 40.140625 -29.359375 C 34.941406 -11.765625 32.21875 -1.976562 31.96875 0 L 3.34375 0 L 39.765625 -127.5 C 42.003906 -134.925781 43.125 -140.375 43.125 -143.84375 C 43.125 -151.78125 39.03125 -155.75 30.84375 -155.75 C 25.894531 -155.75 21.804688 -155.25 18.578125 -154.25 L 18.578125 -160.953125 L 73.96875 -169.875 L 80.65625 -169.875 L 55.75 -84 Z M 56.5 -83.265625 "/></g></g></g><g fill="#ffffff" fill-opacity="1"><g transform="translate(571.50694, 267.25627)"><g><path d="M 120.4375 -169.875 C 130.84375 -169.875 139.578125 -167.269531 146.640625 -162.0625 C 153.703125 -156.851562 157.234375 -150.160156 157.234375 -141.984375 C 157.234375 -134.054688 153.515625 -125.007812 146.078125 -114.84375 C 138.640625 -104.6875 126.554688 -95.707031 109.828125 -87.90625 C 93.109375 -80.101562 71.863281 -75.828125 46.09375 -75.078125 C 44.601562 -70.128906 43.859375 -64.0625 43.859375 -56.875 C 43.859375 -41.757812 47.945312 -30.789062 56.125 -23.96875 C 64.300781 -17.15625 73.347656 -13.75 83.265625 -13.75 C 99.867188 -13.75 116.71875 -22.050781 133.8125 -38.65625 L 138.640625 -34.203125 C 112.128906 -8.429688 86.484375 4.453125 61.703125 4.453125 C 51.546875 4.453125 42.6875 1.914062 35.125 -3.15625 C 27.5625 -8.238281 21.859375 -14.867188 18.015625 -23.046875 C 14.179688 -31.222656 12.265625 -39.648438 12.265625 -48.328125 C 12.265625 -65.671875 17.28125 -83.878906 27.3125 -102.953125 C 37.351562 -122.035156 50.734375 -137.957031 67.453125 -150.71875 C 84.179688 -163.488281 101.84375 -169.875 120.4375 -169.875 Z M 48.328125 -82.140625 C 65.171875 -83.378906 78.796875 -86.234375 89.203125 -90.703125 C 99.367188 -95.160156 107.609375 -100.921875 113.921875 -107.984375 C 120.242188 -115.046875 124.765625 -121.984375 127.484375 -128.796875 C 130.210938 -135.609375 131.578125 -141.242188 131.578125 -145.703125 C 131.578125 -149.921875 130.03125 -153.828125 126.9375 -157.421875 C 123.84375 -161.015625 119.441406 -162.8125 113.734375 -162.8125 C 103.828125 -162.8125 94.226562 -158.222656 84.9375 -149.046875 C 75.644531 -139.878906 67.710938 -128.976562 61.140625 -116.34375 C 54.578125 -103.707031 50.304688 -92.304688 48.328125 -82.140625 Z M 48.328125 -82.140625 "/></g></g></g></g></g></g></g></g></svg>